<?xml version="1.0" standalone="no"?>
<!DOCTYPE svg PUBLIC "-//W3C//DTD SVG 20010904//EN"
 "http://www.w3.org/TR/2001/REC-SVG-20010904/DTD/svg10.dtd">
<svg version="1.0" xmlns="http://www.w3.org/2000/svg"
 width="100.000000pt" height="100.000000pt" viewBox="0 0 100.000000 100.000000"
 preserveAspectRatio="xMidYMid meet">

<g transform="translate(0.000000,100.000000) scale(0.100000,-0.100000)"
fill="#000000" stroke="none">
<path d="M415 920 c-156 -34 -266 -116 -325 -242 -125 -264 88 -559 404 -559
45 -1 102 5 127 11 44 11 50 10 117 -24 98 -49 106 -44 97 56 -6 76 -6 79 23
116 176 224 78 525 -204 622 -68 24 -181 33 -239 20z m257 -92 c219 -101 278
-355 124 -526 -35 -39 -37 -43 -30 -92 l7 -52 -52 26 c-50 26 -53 26 -103 11
-110 -32 -245 -13 -343 49 -185 119 -212 363 -55 510 88 83 157 107 295 103
83 -2 110 -7 157 -29z"/>
</g>
</svg>
